<svg viewBox="0 0 800 800" xmlns="http://www.w3.org/2000/svg"><path d="M608.2385949403408,136.8652489504227 L608.2559908893928,117.80522295394206 M608.2559908893928,117.80522295394206 L646.0388355313106,144.4014906033263 M646.0388355313106,144.4014906033263 L673.7583479902872,174.83404317009416 M673.7583479902872,174.83404317009416 L690.2735406640722,207.86208352459806 M690.2735406640722,207.86208352459806 L694.899176845473,242.13670240734393 M694.899176845473,242.13670240734393 L687.4352527362109,276.25566073094603 M687.4352527362109,276.25566073094603 L668.1769056926711,308.8205889371074 M668.1769056926711,308.8205889371074 L637.9040144167323,338.494485664842 M637.9040144167323,338.494485664842 L597.8506987741904,364.0570848821866 M597.8506987741904,364.0570848821866 L549.6556233249461,384.45566661647996 M549.6556233249461,384.45566661647996 L495.2951487475657,398.84919749256915 M495.2951487475657,398.84919749256915 L437.001793302348,406.6436710552259 M437.001793302348,406.6436710552259 L377.17178125581313,407.5172465894432 M377.17178125581313,407.5172465894432 L318.2653959603918,401.43384174589755 M318.2653959603918,401.43384174589755 L262.7043470485404,388.64467274010076 M262.7043470485404,388.64467274010076 L212.77114154858563,369.6776301325147 M212.77114154858563,369.6776301325147 L170.51430790351046,345.3149168118134 M170.51430790351046,345.3149168118134 L137.66383232727128,316.56015953194645 M137.66383232727128,316.56015953194645 L115.56030011246776,284.5962877852105 M115.56030011246776,284.5962877852105 L105.100823154527,250.73617459226432 M105.100823154527,250.73617459226432 L106.70349706800744,216.3681636535805 M106.70349706800744,216.3681636535805 L120.29194890302927,182.89898082962236 M120.29194890302927,182.89898082962236 L145.30022683224487,151.6961115749205 M145.30022683224487,151.6961115749205 L180.6974784598854,124.03228103696648 M180.6974784598854,124.03228103696648 L225.03136999697804,101.03416292238546 M225.03136999697804,101.03416292238546 L276.48795986670035,83.6371481170221 M276.48795986670035,83.6371481170221 L332.9658459739235,72.54807395037471 M332.9658459739235,72.54807395037471 L392.1613058284535,68.21714076546937 M392.1613058284535,68.21714076546937 L451.6612697211565,70.82011197290211 M451.6612697211565,70.82011197290211 L509.0404386788565,80.25136132213566 M509.0404386788565,80.25136132213566 L561.9587747910012,96.12804500197313 M561.9587747910012,96.12804500197313 L608.2559908893928,117.80522295394206 M608.2385949403408,136.8652489504227 L561.9452418871266,115.18623858727938 M561.9452418871266,115.18623858727938 L509.0313187662042,99.30821238454496 M509.0313187662042,99.30821238454496 L451.65693310744615,89.87616535914293 M451.65693310744615,89.87616535914293 L392.1619285092546,87.27297397460904 M392.1619285092546,87.27297397460904 L332.9714026820761,91.60427349395547 M332.9714026820761,91.60427349395547 L276.4982250688666,102.69428551061168 M276.4982250688666,102.69428551061168 L225.04592681011053,120.09277129118766 M225.04592681011053,120.09277129118766 L180.71573517540085,143.09283329030802 M180.71573517540085,143.09283329030802 L145.321440452407,170.75900104615008 M145.321440452407,170.75900104615008 L120.31525484561394,201.9645051700105 M120.31525484561394,201.9645051700105 L106.72794392515038,235.43651264764617 M106.72794392515038,235.43651264764617 L105.12541120081443,269.8074223843953 M105.12541120081443,269.8074223843953 L115.58402204666874,303.6703898391414 M115.58402204666874,303.6703898391414 L137.6857146167731,335.6369544569744 M137.6857146167731,335.6369544569744 L170.53345102277896,364.3941329659142 M170.53345102277896,364.3941329659142 L212.7867573939975,388.75889674288607 M212.7867573939975,388.75889674288607 L262.71579191863026,407.7275350833241 M262.71579191863026,407.7275350833241 L318.2721976228535,420.5177797675151 M318.2721976228535,420.5177797675151 L377.17365887924905,426.6016961930437 M377.17365887924905,426.6016961930437 L436.9986693346405,425.72804719911505 M436.9986693346405,425.72804719911505 L495.28715220986635,417.93291814289626 M495.28715220986635,417.93291814289626 L549.6430843418002,403.53817657624427 M549.6430843418002,403.53817657624427 L597.8341346092044,383.1378785240228 M597.8341346092044,383.1378785240228 L637.8841076635193,357.573127629924 M637.8841076635193,357.573127629924 L668.1544756018817,327.89673196165535 M668.1544756018817,327.89673196165535 L687.4112209839947,295.32905986228684 M687.4112209839947,295.32905986228684 L694.8745292503786,261.2072250327387 M694.8745292503786,261.2072250327387 L690.2492865139571,226.92971479843757 M690.2492865139571,226.92971479843757 L673.7354786906313,193.89888661868105 M673.7354786906313,193.89888661868105 L646.018284272802,163.4637638873353 M646.018284272802,163.4637638873353 L608.2385949403408,136.8652489504227" stroke="black"  stroke-width="4"  fill="red"/>
<path d="M193.75054301295694,147.91067087947073 L589.4231227001895,375.6086043043749 M193.75054301295694,147.91067087947073 L210.23686750613015,138.44303479350543 M605.9094471272015,366.102958342528 L210.23686750613015,138.44303479350543 M589.4231227001895,375.6086043043749 L605.9094471272015,366.102958342528 M589.4231227001895,375.6086043043749 L589.1697196708343,680.4580857446159 M589.1697196708343,680.4580857446159 L587.2372239584598,697.564576425255 M587.2372239584598,697.564576425255 L581.5831046027997,711.4609988462796 M581.5831046027997,711.4609988462796 L572.5372224214804,721.3403819291746 M572.5372224214804,721.3403819291746 L560.6264700917151,726.6298607792221 M560.6264700917151,726.6298607792221 L546.5438341105915,727.0236350640644 M546.5438341105915,727.0236350640644 L531.1079662436242,722.5003914109557 M531.1079662436242,722.5003914109557 L515.2155741887045,713.3241944948579 M515.2155741887045,713.3241944948579 L499.7893524454824,700.0288423346431 M499.7893524454824,700.0288423346431 L485.7246133452901,683.3867534490196 M485.7246133452901,683.3867534490196 L473.83748459819964,664.3641124272358 M473.83748459819964,664.3641124272358 L464.8178158935759,644.0649718685765 M464.8178158935759,644.0649718685765 L459.18926881136554,623.6673957455284 M459.18926881136554,623.6673957455284 L457.27902883019027,604.3553975566132 M457.30467922440477,502.86329382183305 L457.27902883019027,604.3553975566132 M457.30467922440477,502.86329382183305 L455.405120370247,483.59511142081294 M455.405120370247,483.59511142081294 L449.8066278525062,463.24250727956723 M449.8066278525062,463.24250727956723 L440.83247715044695,442.9823915217974 M440.83247715044695,442.9823915217974 L429.00151503412053,423.9865770689458 M429.00151503412053,423.9865770689458 L414.99806046584627,407.3537132867361 M414.99806046584627,407.3537132867361 L399.63217255767046,394.0455022655001 M407.8717679400549,398.79247266233807 L399.63217255767046,394.0455022655001 M407.8736232088215,347.38739667422897 L407.8717679400549,398.79247266233807 M391.39140963970686,337.8960041355939 L407.8736232088215,347.38739667422897 M391.39140963970686,337.8960041355939 L391.3932430338513,388.7013375399604 M391.3932430338513,388.7013375399604 L376.72846156200035,382.16282483459406 M376.72846156200035,382.16282483459406 L362.8018921834293,379.7732496552709 M362.8018921834293,379.7732496552709 L350.3119866317312,381.6513334085065 M350.3119866317312,381.6513334085065 L339.88470177330043,387.7015832716231 M339.88470177330043,387.7015832716231 L332.0421824523387,397.6193579931799 M332.0421824523387,397.6193579931799 L327.1767174759431,410.90639016697105 M327.1767174759431,410.90639016697105 L325.531264462339,426.89597967709153 M325.56419957156646,528.3541838476311 L325.531264462339,426.89597967709153 M325.56419957156646,528.3541838476311 L323.6578556458779,545.4514701966698 M323.6578556458779,545.4514701966698 L318.0385848589505,559.3451281210855 M318.0385848589505,559.3451281210855 L309.0342228196233,569.2283474801486 M309.0342228196233,569.2283474801486 L297.16921968790956,574.528021772733 M297.16921968790956,574.528021772733 L283.13392201528194,574.9377659313446 M283.13392201528194,574.9377659313446 L267.744225983299,570.4353320518989 M267.744225983299,570.4353320518989 L251.8941590546932,561.2835734766256 M251.8941590546932,561.2835734766256 L236.50396077272939,548.0148679781628 M236.50396077272939,548.0148679781628 L222.4668552381919,531.4000873791275 M222.4668552381919,531.4000873791275 L210.59737414680637,512.4038356567638 M210.59737414680637,512.4038356567638 L201.5843238991031,492.12862396921116 M201.5843238991031,492.12862396921116 L195.95100749841913,471.7511442465187 M195.95100749841913,471.7511442465187 L194.0248803914883,452.45424179547547 M194.0248803914883,452.45424179547547 L193.75054301295694,147.91067087947073 M605.9094471272015,366.102958342528 L605.6340550463377,670.9396933898406 M605.6340550463377,670.9396933898406 L603.7002459308317,688.0456093343688 M603.7002459308317,688.0456093343688 L598.0448903125932,701.9418599925182 M598.0448903125932,701.9418599925182 L588.9979207566375,711.8214840961247 M588.9979207566375,711.8214840961247 L577.0862929936329,717.1116024979706 M577.0862929936329,717.1116024979706 L563.0030442488753,717.5063774399092 M563.0030442488753,717.5063774399092 L547.5668617764044,712.9844371817005 M547.5668617764044,712.9844371817005 L531.6744714884921,703.8097705281275 M531.6744714884921,703.8097705281275 L516.2485677824947,690.5160865662631 M516.2485677824947,690.5160865662631 L502.1844445765982,673.8757069849986 M502.1844445765982,673.8757069849986 L490.29819391077325,654.8547172499705 M490.29819391077325,654.8547172499705 L481.2796145922464,634.5570742500504 M481.2796145922464,634.5570742500504 L475.65230503020837,614.1607551686884 M475.65230503020837,614.1607551686884 L473.7433788821863,594.849700622061 M473.7433788821863,594.849700622061 L473.77635245951734,493.36183434011934 M473.77635245951734,493.36183434011934 L471.87810481396485,474.0945945150935 M471.87810481396485,474.0945945150935 L466.28084815300485,453.7432450675927 M466.28084815300485,453.7432450675927 L457.30778647862826,433.484623483217 M457.30778647862826,433.484623483217 L445.47770352197523,414.49045614170507 M445.47770352197523,414.49045614170507 L431.4748673178767,397.8592970185065 M431.4748673178767,397.8592970185065 L416.1093011376688,384.55274953138303 M424.34889643402994,389.2989279050348 L416.1093011376688,384.55274953138303 M424.3544613115614,337.8960041355939 L424.34889643402994,389.2989279050348 M407.8722478572172,328.4061955416438 L424.3544613115614,337.8960041355939 M407.8722478572172,328.4061955416438 L407.87041476898685,379.20940173965175 M407.87041476898685,379.20940173965175 L393.20549534851534,372.67221860154575 M393.20549534851534,372.67221860154575 L379.278519068586,370.28374616269934 M379.278519068586,370.28374616269934 L366.7879581414215,372.1626506639965 M366.7879581414215,372.1626506639965 L356.35980240600975,378.2133983159198 M356.35980240600975,378.2133983159198 L348.51624049700933,388.13132311484316 M348.51624049700933,388.13132311484316 L343.649613609992,401.4181503172654 M343.649613609992,401.4181503172654 L342.00293769985933,417.40719021441333 M342.00293769985933,417.40719021441333 L342.0285496259659,518.8611569509262 M342.0285496259659,518.8611569509262 L340.12089186734136,535.9578678284026 M340.12089186734136,535.9578678284026 L334.50038356095683,549.8513518212703 M334.50038356095683,549.8513518212703 L325.49493213693074,559.734808725628 M325.49493213693074,559.734808725628 L313.629050926324,565.0351179933859 M313.629050926324,565.0351179933859 L299.59313736309434,565.4458573962413 M299.59313736309434,565.4458573962413 L284.20312329920336,560.9447209783469 M284.20312329920336,560.9447209783469 L268.35305461064337,551.7944865567586 M268.35305461064337,551.7944865567586 L252.96317094275707,538.5274433269867 M252.96317094275707,538.5274433269867 L238.9266781813183,521.9143666256587 M238.9266781813183,521.9143666256587 L227.05807253250939,502.91976161906496 M227.05807253250939,502.91976161906496 L218.04610966740722,482.6460440214952 M218.04610966740722,482.6460440214952 L212.41402953468355,462.2698191722519 M212.41402953468355,462.2698191722519 L210.48921583280077,442.97385962186047 M210.48921583280077,442.97385962186047 L210.23686750613015,138.44303479350543 M589.1697196708343,680.4580857446159 L605.6340550463377,670.9396933898406 M407.8736232088215,347.38739667422897 L424.3544613115614,337.8960041355939 M407.8717679400549,398.79247266233807 L413.3580799434293,395.1003501079053 M413.3580799434293,395.1003501079053 L418.8632717356575,391.928466077415 M418.8632717356575,391.928466077415 L424.34889643402994,389.2989279050348 M416.1093011376688,384.55274953138303 L399.6321725576705,383.95517167117845 M399.63217255767046,394.0455022655001 L399.6321725576705,383.95517167117845 M457.30467922440477,502.86329382183305 L473.77635245951734,493.36183434011934 M457.27902883019027,604.3553975566132 L473.7433788821863,594.849700622061 M194.0248803914883,452.45424179547547 L210.48921583280077,442.97385962186047 M325.56419957156646,528.3541838476311 L342.0285496259659,518.8611569509262 M325.531264462339,426.89597967709153 L342.00293769985933,417.40719021441333 M407.87041476898685,379.20940173965175 L399.6321725576705,383.95517167117845 M399.6321725576705,383.95517167117845 L391.3932430338513,388.7013375399604 M407.8722478572172,328.4061955416438 L391.39140963970686,337.8960041355939" stroke="black"  stroke-width="4"  fill="red"/>
<path d="M391.3886580180472,261.64559380039987 L201.5977158181973,370.8555827596571 M407.87637528985044,271.13379020928744 L391.3886580180472,261.64559380039987 M218.08541786533488,380.3620230264591 L407.87637528985044,271.13379020928744 M201.5977158181973,370.8555827596571 L218.08541786533488,380.3620230264591 M201.5977158181973,370.8555827596571 L201.86211429181483,675.6986910026346 M201.86211429181483,675.6986910026346 L203.7952667639156,692.8048943210151 M203.7952667639156,692.8048943210151 L209.450004312278,706.70123087762 M209.450004312278,706.70123087762 L218.4964302420117,716.5807344981133 M218.4964302420117,716.5807344981133 L230.40762034562795,721.8705331599356 M230.40762034562795,721.8705331599356 L244.49056275861406,722.2648078157415 M244.49056275861406,722.2648078157415 L259.92658796829096,717.7422159065686 M259.92658796829096,717.7422159065686 L275.81897916726115,708.5667841695858 M275.81897916726115,708.5667841695858 L291.24504190542507,695.2722661549878 M291.24504190542507,695.2722661549878 L305.30947305723737,678.631031963881 M305.30947305723737,678.631031963881 L317.19616274774745,659.6092166212563 M317.19616274774745,659.6092166212563 L326.2152867295822,639.3108248691203 M326.2152867295822,639.3108248691203 L331.84321500989546,618.9138772838701 M331.84321500989546,618.9138772838701 L333.7527980230359,599.6023509218727 M333.723485731808,498.1123659137178 L333.7527980230359,599.6023509218727 M333.723485731808,498.1123659137178 L335.6341843812911,478.7824149513241 M335.6341843812911,478.7824149513241 L341.2661095376446,458.36507343194404 M341.2661095376446,458.36507343194404 L350.29203386767875,438.04835428919523 M350.29203386767875,438.04835428919523 L362.1868858092477,419.01465402158414 M362.1868858092477,419.01465402158414 L376.25837154775286,402.37156992705945 M376.25837154775286,402.37156992705945 L391.6874577009073,389.08738084301626 M391.6874577009073,389.08738084301626 L407.57624831182335,379.9343466211849 M407.57624831182335,379.9343466211849 L423.00044255299815,375.4438877618111 M423.00044255299815,375.4438877618111 L437.0632661631594,375.8758163179542 M437.0632661631594,375.8758163179542 L448.94767170180126,381.20339213983357 M448.94767170180126,381.20339213983357 L457.9637598775936,391.11545108275607 M457.9637598775936,391.11545108275607 L463.58871305791297,405.0346443682817 M463.58871305791297,405.0346443682817 L465.4969007217994,422.1513871747404 M465.46762750928207,523.607472627885 L465.4969007217994,422.1513871747404 M465.46762750928207,523.607472627885 L467.3746284094896,540.7044712468453 M467.3746284094896,540.7044712468453 L472.9945180174557,554.5980422223547 M472.9945180174557,554.5980422223547 L481.9994248101378,564.4813803811105 M481.9994248101378,564.4813803811105 L493.8648670384562,569.7813721969242 M493.8648670384562,569.7813721969242 L507.9004727063792,570.1916140198182 M507.9004727063792,570.1916140198182 L523.2903277942477,565.6898289173712 M523.2903277942477,565.6898289173712 L539.1403956303848,556.5388324665386 M539.1403956303848,556.5388324665386 L554.5304366188902,543.2709581486308 M554.5304366188902,543.2709581486308 L568.5672357656974,526.657029540591 M568.5672357656974,526.657029540591 L580.4362791199201,507.6616012117452 M580.4362791199201,507.6616012117452 L589.4487856466731,487.38713659624534 M589.4487856466731,487.38713659624534 L595.081483871669,467.0102843272015 M595.081483871669,467.0102843272015 L597.006954224727,447.71385333229034 M597.006954224727,447.71385333229034 L597.2702961615744,143.1766554624869 M407.87499901962263,252.15898133148283 L597.2702961615744,143.1766554624869 M407.87499901962263,252.15898133148283 L407.8722478572172,328.4061955416438 M407.8722478572172,328.4061955416438 L391.39140963970686,337.8960041355939 M391.39140963970686,337.8960041355939 L391.3886580180472,261.64559380039987 M407.87637528985044,271.13379020928744 L407.8736232088215,347.38739667422897 M218.08541786533488,380.3620230264591 L218.3278236130673,685.2178776654957 M218.3278236130673,685.2178776654957 L220.25966244937186,702.3246556967943 M220.25966244937186,702.3246556967943 L225.91316348947916,716.2211639481932 M225.91316348947916,716.2211639481932 L234.95850180016694,726.1004264389924 M234.95850180016694,726.1004264389924 L246.86881624159474,731.3895854054997 M246.86881624159474,731.3895854054997 L260.9511456907427,731.7828592345306 M260.9511456907427,731.7828592345306 L276.3868561350664,727.2589637444987 M276.3868561350664,727.2589637444987 L292.27924899081336,718.0820015535644 M292.27924899081336,718.0820015535644 L307.7056297119774,704.7858151548353 M307.7056297119774,704.7858151548353 L321.77067676301107,688.1428714900076 M321.77067676301107,688.1428714900076 L333.65824459858044,669.1194047174935 M333.65824459858044,669.1194047174935 L342.67845808548327,648.8195152979981 M342.67845808548327,648.8195152979981 L348.30762405322736,628.4213106032405 M348.30762405322736,628.4213106032405 L350.2185211053726,609.1088405758617 M350.2185211053726,609.1088405758617 L350.19653321919645,507.61461811406605 M350.19653321919645,507.61461811406605 L352.10854728393963,488.28372109922145 M352.10854728393963,488.28372109922145 L357.741711766661,467.86511962940045 M357.741711766661,467.86511962940045 L366.76872720888775,447.54690003485535 M366.76872720888775,447.54690003485535 L378.66445849494283,428.51154625882646 M378.66445849494283,428.51154625882646 L392.7365605611532,411.8667519514621 M392.7365605611532,411.8667519514621 L408.1659640786805,398.58089555752593 M408.1659640786805,398.58089555752593 L424.0547545789985,389.4263339456796 M424.0547545789985,389.4263339456796 L439.4786312411473,384.93457638211714 M439.4786312411473,384.93457638211714 L453.5408383281458,385.3655102755306 M453.5408383281458,385.3655102755306 L465.4243643574432,390.69245306534265 M465.4243643574432,390.69245306534265 L474.4393612962597,400.6042771414836 M474.4393612962597,400.6042771414836 L480.06307507255383,414.52364713112644 M480.06307507255383,414.52364713112644 L481.96994729496294,431.64096777093573 M481.96994729496294,431.64096777093573 L481.93334967861165,533.1012906596115 M481.93334967861165,533.1012906596115 L483.83903651365694,550.1988647273173 M483.83903651365694,550.1988647273173 L489.4576883569014,564.0926095668942 M489.4576883569014,564.0926095668942 L498.4615055208379,573.975710072162 M498.4615055208379,573.975710072162 L510.3260694416065,579.2750667702177 M510.3260694416065,579.2750667702177 L524.3610590189282,579.6843131802101 M524.3610590189282,579.6843131802101 L539.7505959151445,575.1812304313025 M539.7505959151445,575.1812304313025 L555.6006618810966,566.0287096363766 M555.6006618810966,566.0287096363766 L570.9910174293498,552.7591728649247 M570.9910174293498,552.7591728649247 L585.0284293539765,536.1435401905985 M585.0284293539765,536.1435401905985 L596.8983482142773,517.1464650034421 M596.8983482142773,517.1464650034421 L605.9119422422397,496.870506189708 M605.9119422422397,496.870506189708 L611.5458769020419,476.49239897951713 M611.5458769020419,476.49239897951713 L613.4726608655617,457.1950250607314 M613.4726608655617,457.1950250607314 L613.7579955176279,152.6450810938374 M613.7579955176279,152.6450810938374 L424.36271617654035,261.64559380039987 M424.3544613115614,337.8960041355939 L424.36271617654035,261.64559380039987 M407.8736232088215,347.38739667422897 L424.3544613115614,337.8960041355939 M391.39140963970686,337.8960041355939 L407.8736232088215,347.38739667422897 M201.86211429181483,675.6986910026346 L218.3278236130673,685.2178776654957 M407.8722478572172,328.4061955416438 L424.3544613115614,337.8960041355939 M407.87499901962263,252.15898133148283 L424.36271617654035,261.64559380039987 M597.2702961615744,143.1766554624869 L613.7579955176279,152.6450810938374 M597.006954224727,447.71385333229034 L613.4726608655617,457.1950250607314 M465.46762750928207,523.607472627885 L481.93334967861165,533.1012906596115 M465.4969007217994,422.1513871747404 L481.96994729496294,431.64096777093573 M333.723485731808,498.1123659137178 L350.19653321919645,507.61461811406605 M333.7527980230359,599.6023509218727 L350.2185211053726,609.1088405758617" stroke="black"  stroke-width="4"  fill="red"/></svg>